<svg id="Layer_1" data-name="Layer 1" xmlns="http://www.w3.org/2000/svg" viewBox="0 0 1366 768"><defs><style>.cls-1{fill:#666;}.cls-2{fill:none;stroke:#000;stroke-miterlimit:10;}.cls-3{font-size:36px;}.cls-10,.cls-23,.cls-26,.cls-3{font-family:MyriadPro-Regular, Myriad Pro;}.cls-4{letter-spacing:0em;}.cls-10,.cls-5{font-size:24px;}.cls-5,.cls-8{font-family:MyriadPro-Bold, Myriad Pro;font-weight:700;}.cls-6{letter-spacing:0em;}.cls-7{letter-spacing:-0.01em;}.cls-8{font-size:28px;}.cls-9{letter-spacing:-0.01em;}.cls-10{font-weight:400;}.cls-11{letter-spacing:0em;}.cls-12{letter-spacing:0em;}.cls-13{letter-spacing:-0.01em;}.cls-14{letter-spacing:-0.01em;}.cls-15{letter-spacing:-0.01em;}.cls-16{letter-spacing:-0.01em;}.cls-17{letter-spacing:0.02em;}.cls-18{letter-spacing:0em;}.cls-19{letter-spacing:0em;}.cls-20{letter-spacing:0.02em;}.cls-21{letter-spacing:0em;}.cls-22{fill:#999;}.cls-23{font-size:48px;}.cls-24{letter-spacing:-0.03em;}.cls-25{letter-spacing:-0.01em;}.cls-26{font-size:31.23px;}</style></defs><rect class="cls-1" x="745.37" y="400.99" width="450.52" height="107.5" transform="translate(1425.37 -515.88) rotate(90)"/><line class="cls-2" x1="928.8" y1="210.96" x2="1012.45" y2="210.54"/><polygon points="930.28 215.94 921.62 211 930.23 205.97 930.28 215.94"/><polygon points="1011.01 215.53 1019.62 210.5 1010.96 205.56 1011.01 215.53"/><line class="cls-2" x1="1041.5" y1="240.18" x2="1041.5" y2="548.82"/><polygon points="1036.51 241.63 1041.5 233 1046.49 241.63 1036.51 241.63"/><polygon points="1036.51 547.37 1041.5 556 1046.49 547.37 1036.51 547.37"/><line class="cls-2" x1="1067.25" y1="290.12" x2="1095.5" y2="290.12"/><polygon points="1068.71 295.11 1060.08 290.12 1068.71 285.14 1068.71 295.11"/><text class="cls-3" transform="translate(199 163.56)"><tspan class="cls-4">P</tspan><tspan x="18.97" y="0">lan view</tspan></text><text class="cls-3" transform="translate(887.9 148.7)">Side view</text><text class="cls-5" transform="translate(861.13 193.04)">diame<tspan class="cls-6" x="66.86" y="0">t</tspan><tspan x="75.55" y="0">er = 6.2 mm</tspan></text><text class="cls-5" transform="translate(573.13 623.04)">nut heig<tspan class="cls-7" x="89.06" y="0">h</tspan><tspan x="102.98" y="0">t = 6 mm</tspan></text><text class="cls-8" transform="translate(1107 300.88)">heig<tspan class="cls-9" x="55.24" y="0">h</tspan><tspan x="71.48" y="0">t = 10 mm </tspan><tspan class="cls-10"><tspan x="0" y="28.8">(not ide</tspan><tspan class="cls-11" x="77.52" y="28.8">n</tspan><tspan class="cls-12" x="90.74" y="28.8">tical </tspan><tspan class="cls-13" x="137.37" y="28.8">f</tspan><tspan x="144.07" y="28.8">or all </tspan><tspan x="0" y="57.6">plug</tspan><tspan class="cls-14" x="45.96" y="57.6">s</tspan><tspan x="55.2" y="57.6">. but all a</tspan><tspan class="cls-15" x="144.72" y="57.6">r</tspan><tspan x="152.33" y="57.6">e +/- </tspan><tspan x="0" y="86.4">20% of this </tspan><tspan class="cls-11" x="115.46" y="86.4">v</tspan><tspan class="cls-12" x="126.91" y="86.4">alu</tspan><tspan class="cls-16" x="157.36" y="86.4">e</tspan><tspan x="169.1" y="86.4">. </tspan><tspan class="cls-17" x="179.16" y="86.4">I</tspan><tspan x="185.28" y="86.4">t is </tspan><tspan x="0" y="115.2">so amll th</tspan><tspan class="cls-18" x="97.03" y="115.2">a</tspan><tspan class="cls-19" x="108.5" y="115.2">t not </tspan><tspan class="cls-15" x="0" y="144">w</tspan><tspan x="17.42" y="144">o</tspan><tspan class="cls-20" x="30.6" y="144">r</tspan><tspan x="39.02" y="144">th measu</tspan><tspan class="cls-21" x="131.71" y="144">r</tspan><tspan x="139.65" y="144">ing fr </tspan><tspan x="0" y="172.8">all 12 plug</tspan><tspan class="cls-14" x="103.65" y="172.8">s</tspan><tspan x="112.89" y="172.8">.</tspan></tspan></text><rect class="cls-22" x="793.12" y="568" width="355" height="112"/><path class="cls-22" d="M382.12,257.33H160.35L49.46,449.39,160.35,641.45H382.12L493,449.39ZM271.23,539.69a90.3,90.3,0,1,1,90.31-90.3A90.3,90.3,0,0,1,271.23,539.69Z"/><text class="cls-23" transform="translate(46 101.08)"><tspan class="cls-24">F</tspan><tspan x="21.89" y="0">or the nu</tspan><tspan class="cls-6" x="203.95" y="0">t</tspan><tspan x="219.6" y="0">-bolt </tspan><tspan class="cls-25" x="325.39" y="0">c</tspan><tspan x="346.6" y="0">ombo only (not </tspan><tspan class="cls-7" x="666.62" y="0">t</tspan><tspan x="682.21" y="0">o scale):</tspan></text><line class="cls-2" x1="271.38" y1="284.67" x2="271.38" y2="624.76"/><polygon points="266.39 286.13 271.38 277.49 276.37 286.13 266.39 286.13"/><polygon points="266.39 623.3 271.38 631.93 276.37 623.3 266.39 623.3"/><text class="cls-26" transform="translate(277.73 325.01)">d = 11 mm</text></svg>